<svg xmlns="http://www.w3.org/2000/svg" xmlns:xlink="http://www.w3.org/1999/xlink" width="40" zoomAndPan="magnify" viewBox="0 0 30 30.000001" height="40" preserveAspectRatio="xMidYMid meet" version="1.0"><defs><clipPath id="1f66d2b05c"><path d="M 6 5 L 24 5 L 24 24 L 6 24 Z M 6 5 " clip-rule="nonzero"/></clipPath><clipPath id="0095252fea"><path d="M 2.640625 12.324219 L 18.878906 2.710938 L 27.386719 17.074219 L 11.148438 26.6875 Z M 2.640625 12.324219 " clip-rule="nonzero"/></clipPath><clipPath id="d4e7e78886"><path d="M 2.640625 12.324219 L 19.015625 2.628906 L 27.347656 16.699219 L 10.972656 26.394531 Z M 2.640625 12.324219 " clip-rule="nonzero"/></clipPath><clipPath id="ce0d078da4"><path d="M 23.1875 10.390625 L 23.25 18.398438 C 23.253906 18.847656 23.015625 19.265625 22.628906 19.492188 L 15.691406 23.601562 C 15.304688 23.832031 14.824219 23.835938 14.433594 23.617188 L 7.441406 19.714844 C 7.050781 19.496094 6.804688 19.082031 6.800781 18.632812 L 6.742188 10.625 C 6.738281 10.175781 6.972656 9.757812 7.359375 9.53125 L 14.300781 5.421875 C 14.6875 5.191406 15.164062 5.1875 15.558594 5.40625 L 22.550781 9.3125 C 22.941406 9.53125 23.183594 9.941406 23.1875 10.390625 Z M 23.1875 10.390625 " clip-rule="nonzero"/></clipPath><clipPath id="a83bc88d04"><path d="M 2 0 L 28 0 L 28 29 L 2 29 Z M 2 0 " clip-rule="nonzero"/></clipPath><clipPath id="9cbef9ec3f"><path d="M -3.871094 11.105469 L 21.015625 -3.625 L 33.800781 17.96875 L 8.914062 32.703125 Z M -3.871094 11.105469 " clip-rule="nonzero"/></clipPath><clipPath id="4442ae072c"><path d="M 27.574219 7.800781 L 27.671875 20.867188 C 27.675781 21.316406 27.441406 21.734375 27.054688 21.964844 L 15.738281 28.664062 C 15.351562 28.890625 14.871094 28.898438 14.480469 28.679688 L 3.070312 22.308594 C 2.679688 22.089844 2.4375 21.675781 2.433594 21.226562 L 2.332031 8.164062 C 2.328125 7.714844 2.566406 7.296875 2.953125 7.066406 L 14.265625 0.367188 C 14.652344 0.140625 15.132812 0.132812 15.527344 0.351562 L 26.933594 6.722656 C 27.324219 6.941406 27.570312 7.355469 27.574219 7.800781 Z M 27.574219 7.800781 " clip-rule="nonzero"/></clipPath><clipPath id="a56f7e9f70"><path d="M 2 0 L 28 0 L 28 29 L 2 29 Z M 2 0 " clip-rule="nonzero"/></clipPath><clipPath id="f4900838b6"><path d="M -3.953125 11.15625 L 21.027344 -3.632812 L 33.96875 18.226562 L 8.988281 33.015625 Z M -3.953125 11.15625 " clip-rule="nonzero"/></clipPath><clipPath id="85fc601a72"><path d="M -3.949219 11.152344 L 21.167969 -3.71875 L 33.949219 17.867188 L 8.832031 32.738281 Z M -3.949219 11.152344 " clip-rule="nonzero"/></clipPath><clipPath id="1674a9975c"><path d="M 27.566406 7.800781 L 27.664062 20.859375 C 27.667969 21.308594 27.433594 21.726562 27.046875 21.957031 L 15.734375 28.652344 C 15.347656 28.882812 14.867188 28.886719 14.476562 28.667969 L 3.074219 22.300781 C 2.683594 22.082031 2.4375 21.667969 2.433594 21.222656 L 2.335938 8.160156 C 2.332031 7.710938 2.566406 7.296875 2.953125 7.066406 L 14.265625 0.371094 C 14.652344 0.140625 15.128906 0.136719 15.523438 0.355469 L 26.925781 6.722656 C 27.316406 6.941406 27.5625 7.351562 27.566406 7.800781 Z M 27.566406 7.800781 " clip-rule="nonzero"/></clipPath></defs><g clip-path="url(#1f66d2b05c)"><g clip-path="url(#0095252fea)"><g clip-path="url(#d4e7e78886)"><g clip-path="url(#ce0d078da4)"><path stroke-linecap="butt" transform="matrix(0.624554, -0.369766, 0.369766, 0.624554, 2.642405, 12.323302)" fill="none" stroke-linejoin="miter" d="M 25.714296 12.129622 L 20.167574 21.667341 C 19.856891 22.202664 19.281011 22.530943 18.6635 22.528105 L 7.554144 22.530521 C 6.933891 22.532314 6.361518 22.199696 6.051948 21.666166 L 0.501319 12.131715 C 0.191748 11.598185 0.190624 10.934546 0.501307 10.399222 L 6.05266 0.864245 C 6.363343 0.328921 6.934591 -0.00209931 7.552103 0.000738717 L 18.666089 0.00106479 C 19.286343 -0.000728325 19.854084 0.329148 20.168286 0.86542 L 25.716173 10.404502 C 26.025744 10.938032 26.024979 11.594298 25.714296 12.129622 Z M 25.714296 12.129622 " stroke="#ffffff" stroke-width="8" stroke-opacity="1" stroke-miterlimit="4"/></g></g></g></g><g clip-path="url(#a83bc88d04)"><g clip-path="url(#9cbef9ec3f)"><g clip-path="url(#4442ae072c)"><path fill="#0f1725" d="M -3.953125 11.15625 L 21.183594 -3.726562 L 33.96875 17.867188 L 8.832031 32.75 Z M -3.953125 11.15625 " fill-opacity="1" fill-rule="nonzero"/></g></g></g><g clip-path="url(#a56f7e9f70)"><g clip-path="url(#f4900838b6)"><g clip-path="url(#85fc601a72)"><g clip-path="url(#1674a9975c)"><path stroke-linecap="butt" transform="matrix(0.624554, -0.369766, 0.369766, 0.624554, -3.949283, 11.153635)" fill="none" stroke-linejoin="miter" d="M 39.717587 18.146345 L 30.667316 33.696813 C 30.356633 34.232136 29.785385 34.563157 29.165132 34.56495 L 11.053779 34.562298 C 10.433525 34.564091 9.861152 34.231473 9.551582 33.697943 L 0.502504 18.145675 C 0.192934 17.612145 0.191809 16.948506 0.499751 16.417813 L 9.552763 0.862714 C 9.863447 0.327391 10.431953 0.00100108 11.052206 -0.000792058 L 29.163559 0.00186016 C 29.783813 0.0000670284 30.351554 0.329943 30.665756 0.866216 L 39.714833 16.418483 C 40.024404 16.952014 40.02827 17.611021 39.717587 18.146345 Z M 39.717587 18.146345 " stroke="#6366f1" stroke-width="16" stroke-opacity="1" stroke-miterlimit="4"/></g></g></g></g></svg>