<svg xmlns="http://www.w3.org/2000/svg" xmlns:xlink="http://www.w3.org/1999/xlink" width="1000" zoomAndPan="magnify" viewBox="0 0 750 374.999991" height="500" preserveAspectRatio="xMidYMid meet" version="1.0"><defs><g/><clipPath id="728dff2314"><path d="M 532 119 L 648 119 L 648 250 L 532 250 Z M 532 119 " clip-rule="nonzero"/></clipPath><clipPath id="76a529fc55"><path d="M 503.800781 169.003906 L 618.03125 101.375 L 676.109375 199.472656 L 561.878906 267.101562 Z M 503.800781 169.003906 " clip-rule="nonzero"/></clipPath><clipPath id="5a3e0c01fa"><path d="M 503.804688 169.003906 L 618.070312 101.351562 L 676.207031 199.550781 L 561.941406 267.199219 Z M 503.804688 169.003906 " clip-rule="nonzero"/></clipPath><clipPath id="2c9b1e27d6"><path d="M 647.160156 153.449219 L 647.617188 213.464844 C 647.632812 215.320312 646.65625 217.042969 645.058594 217.992188 L 593.089844 248.761719 C 591.488281 249.707031 589.507812 249.730469 587.886719 248.824219 L 535.492188 219.566406 C 533.871094 218.660156 532.863281 216.957031 532.847656 215.101562 L 532.390625 155.089844 C 532.378906 153.234375 533.351562 151.507812 534.949219 150.5625 L 586.921875 119.792969 C 588.519531 118.847656 590.5 118.824219 592.121094 119.726562 L 644.519531 148.988281 C 646.136719 149.894531 647.144531 151.597656 647.160156 153.449219 Z M 647.160156 153.449219 " clip-rule="nonzero"/></clipPath></defs><g fill="#ffffff" fill-opacity="1"><g transform="translate(18.569958, 235.799567)"><g><path d="M 43.171875 -101.703125 C 57.367188 -101.703125 67.425781 -98.953125 73.34375 -93.453125 C 79.269531 -87.953125 82.234375 -80.640625 82.234375 -71.515625 C 82.234375 -62.296875 79.550781 -54.675781 74.1875 -48.65625 C 68.832031 -42.644531 60.28125 -39.640625 48.53125 -39.640625 L 31.3125 -39.640625 L 31.3125 0 L 9.171875 0 L 9.171875 -101.703125 Z M 41.046875 -55.859375 C 47.628906 -55.859375 52.378906 -57.148438 55.296875 -59.734375 C 58.210938 -62.328125 59.671875 -66.207031 59.671875 -71.375 C 59.671875 -76.082031 58.328125 -79.5625 55.640625 -81.8125 C 52.960938 -84.070312 48.804688 -85.203125 43.171875 -85.203125 L 30.75 -85.203125 L 30.75 -55.859375 Z M 41.046875 -55.859375 "/></g></g></g><g fill="#ffffff" fill-opacity="1"><g transform="translate(104.75677, 235.799567)"><g><path d="M 54.3125 -101.984375 C 65.875 -101.984375 74.265625 -99.375 79.484375 -94.15625 C 84.703125 -88.9375 87.3125 -82.707031 87.3125 -75.46875 C 87.3125 -69.257812 85.570312 -64.039062 82.09375 -59.8125 C 78.613281 -55.582031 73.253906 -52.476562 66.015625 -50.5 C 71.941406 -49.84375 76.265625 -48.03125 78.984375 -45.0625 C 81.710938 -42.101562 83.710938 -34.648438 84.984375 -22.703125 C 86.253906 -10.765625 88.113281 -3.195312 90.5625 0 L 66.4375 0 C 63.988281 -17.207031 62.363281 -28.375 61.5625 -33.5 C 60.769531 -38.625 57.222656 -41.1875 50.921875 -41.1875 L 30.75 -41.1875 L 30.75 0 L 8.46875 0 L 8.46875 -101.984375 Z M 49.09375 -57.40625 C 53.789062 -57.40625 57.523438 -58.722656 60.296875 -61.359375 C 63.078125 -63.992188 64.46875 -67.566406 64.46875 -72.078125 C 64.46875 -76.597656 63.21875 -80.03125 60.71875 -82.375 C 58.226562 -84.726562 54.445312 -85.90625 49.375 -85.90625 L 30.046875 -85.90625 L 30.046875 -57.40625 Z M 49.09375 -57.40625 "/></g></g></g><g fill="#ffffff" fill-opacity="1"><g transform="translate(198.842865, 235.799567)"><g><path d="M 103.828125 -51.90625 C 103.828125 -35.164062 99.5 -21.90625 90.84375 -12.125 C 82.1875 -2.34375 70.242188 2.546875 55.015625 2.546875 C 39.585938 2.546875 27.570312 -2.035156 18.96875 -11.203125 C 10.363281 -20.378906 6.0625 -33.195312 6.0625 -49.65625 C 6.0625 -66.582031 10.335938 -79.890625 18.890625 -89.578125 C 27.453125 -99.265625 39.492188 -104.109375 55.015625 -104.109375 C 71.003906 -104.109375 83.132812 -99.265625 91.40625 -89.578125 C 99.6875 -79.890625 103.828125 -67.332031 103.828125 -51.90625 Z M 54.59375 -13.546875 C 63.90625 -13.546875 70.628906 -17.023438 74.765625 -23.984375 C 78.898438 -30.941406 80.96875 -40.4375 80.96875 -52.46875 C 80.96875 -63.382812 78.734375 -72.109375 74.265625 -78.640625 C 69.796875 -85.179688 63.472656 -88.453125 55.296875 -88.453125 C 46.640625 -88.453125 40.078125 -85.226562 35.609375 -78.78125 C 31.148438 -72.34375 28.921875 -63.195312 28.921875 -51.34375 C 28.921875 -38.644531 31.128906 -29.171875 35.546875 -22.921875 C 39.960938 -16.671875 46.3125 -13.546875 54.59375 -13.546875 Z M 54.59375 -13.546875 "/></g></g></g><g fill="#ffffff" fill-opacity="1"><g transform="translate(308.586479, 235.799567)"><g><path d="M 44.15625 -101.984375 L 65.734375 -27.796875 L 89.015625 -101.984375 L 123.71875 -101.984375 L 123.71875 0 L 101.984375 0 L 101.984375 -87.453125 L 74.203125 0 L 56.140625 0 L 28.921875 -87.453125 L 28.921875 0 L 8.46875 0 L 8.46875 -101.984375 Z M 44.15625 -101.984375 "/></g></g></g><g fill="#ffffff" fill-opacity="1"><g transform="translate(441.745805, 235.799567)"><g><path d="M 78.71875 -101.984375 L 78.71875 -85.34375 L 32.296875 -85.34375 L 32.296875 -61.078125 L 75.75 -61.078125 L 75.75 -44.4375 L 32.296875 -44.4375 L 32.296875 -16.921875 L 80.265625 -16.921875 L 80.265625 0 L 10.4375 0 L 10.4375 -101.984375 Z M 78.71875 -101.984375 "/></g></g></g><g fill="#292b68" fill-opacity="1"><g transform="translate(527.937112, 235.799567)"><g/></g></g><g fill="#292b68" fill-opacity="1"><g transform="translate(567.151412, 235.799567)"><g/></g></g><g fill="#292b68" fill-opacity="1"><g transform="translate(606.365711, 235.799567)"><g/></g></g><g fill="#6366f1" fill-opacity="1"><g transform="translate(645.58164, 235.799567)"><g><path d="M 32.015625 -101.84375 L 32.015625 -17.34375 L 75.75 -17.34375 L 75.75 0 L 9.734375 0 L 9.734375 -101.84375 Z M 32.015625 -101.84375 "/></g></g></g><g clip-path="url(#728dff2314)"><g clip-path="url(#76a529fc55)"><g clip-path="url(#5a3e0c01fa)"><g clip-path="url(#2c9b1e27d6)"><path stroke-linecap="butt" transform="matrix(0.645373, -0.382092, 0.382092, 0.645373, 503.802744, 169.0037)" fill="none" stroke-linejoin="miter" d="M 175.043896 79.532943 L 134.80117 148.701066 C 133.558725 150.840513 131.268129 152.153612 128.790312 152.157431 L 48.264091 152.159157 C 45.784444 152.155841 43.496275 150.837449 42.251939 148.696514 L 2.012258 79.537899 C 0.767923 77.396964 0.768519 74.758338 2.010965 72.618891 L 42.251038 3.45525 C 43.497965 1.318456 45.786732 -0.00177854 48.261896 -0.00111574 L 128.792599 -0.000188143 C 131.267764 0.000474655 133.555933 1.318866 134.802922 3.455319 L 175.044432 72.62107 C 176.284285 74.759351 176.283689 77.397978 175.043896 79.532943 Z M 175.043896 79.532943 " stroke="#6366f1" stroke-width="60" stroke-opacity="1" stroke-miterlimit="4"/></g></g></g></g></svg>